<svg xmlns="http://www.w3.org/2000/svg" xmlns:xlink="http://www.w3.org/1999/xlink" viewBox="0 0 183.85 243.99">
  <defs>
    <clipPath id="clip-path">
      <rect x="17.79" width="150" height="132.75" fill="none"/>
    </clipPath>
  </defs>
  <title>Asset 2</title>
  <g id="Layer_2" data-name="Layer 2">
    <g id="Layer_1-2" data-name="Layer 1">
      <g clip-path="url(#clip-path)">
        <polygon points="148.02 110.73 167.71 110.73 164.19 105.56 148.02 105.56 147.12 105.56 129.22 105.56 123.95 97.81 147.12 97.81 148.02 97.81 158.91 97.81 155.39 92.64 148.02 92.64 147.12 92.64 120.43 92.64 115.14 84.88 147.12 84.88 148.02 84.88 150.11 84.88 146.59 79.71 111.62 79.71 106.34 71.96 141.31 71.96 137.79 66.79 102.83 66.79 97.55 59.03 132.51 59.03 128.99 53.86 94.03 53.86 91.91 50.75 89.79 53.86 56.58 53.86 53.06 59.03 86.27 59.03 80.99 66.79 47.78 66.79 44.27 71.96 77.47 71.96 72.19 79.71 38.99 79.71 35.47 84.88 68.67 84.88 63.4 92.64 30.19 92.64 26.67 97.81 59.88 97.81 54.6 105.56 21.39 105.56 17.87 110.73 18.44 110.73 51.08 110.73 36.08 132.76 147.74 132.75 132.75 110.73 147.12 110.73 148.02 110.73" fill="#4f1263"/>
        <polygon points="111.39 28.01 74.18 28.01 70.66 33.18 114.91 33.18 111.39 28.01" fill="#4f1263"/>
        <polygon points="102.59 15.09 82.98 15.09 79.46 20.26 106.11 20.26 102.59 15.09" fill="#4f1263"/>
        <polygon points="120.19 40.94 65.38 40.94 61.86 46.11 123.71 46.11 120.19 40.94" fill="#4f1263"/>
        <polygon points="92.79 0 88.26 7.33 97.31 7.33 92.79 0" fill="#4f1263"/>
      </g>
      <g>
        <g>
          <path d="M22.92,186H16.31l-1.13-6.09h-8L6,186H0l6.67-33.6h9.58ZM8,175.34h6.3l-3.15-17Z" fill="#9866a8"/>
          <path d="M35.83,152.39q5.12,0,7.41,1.92t2.29,5.81v1.2a8.11,8.11,0,0,1-1,4.27,6.06,6.06,0,0,1-3.21,2.5,6.31,6.31,0,0,1,3.78,2.66,8.77,8.77,0,0,1,1.1,4.54V178a7.22,7.22,0,0,1-2.5,5.93q-2.5,2-7.44,2H26v-33.6Zm-3.33,4.8v8.88h2.56a4.69,4.69,0,0,0,2.88-.77A3.23,3.23,0,0,0,39,162.52v-1.87a3.63,3.63,0,0,0-.81-2.64,3.39,3.39,0,0,0-2.53-.82Zm0,13.68v10.32h3.75a3.87,3.87,0,0,0,2.53-.72,3.25,3.25,0,0,0,.86-2.59V175a4.17,4.17,0,0,0-1-3.21,4.88,4.88,0,0,0-3.25-.87Z" fill="#9866a8"/>
          <path d="M50.12,152.39H60.47c3.29,0,5.75.71,7.35,2.11a7.8,7.8,0,0,1,2.41,6.2v17a7.78,7.78,0,0,1-2.41,6.19c-1.6,1.41-4.06,2.11-7.35,2.11H50.12Zm6.54,4.8v24h3.69a3.77,3.77,0,0,0,2.44-.72,3.09,3.09,0,0,0,.9-2.54V160.46a3.1,3.1,0,0,0-.9-2.55,3.77,3.77,0,0,0-2.44-.72Z" fill="#9866a8"/>
          <path d="M95.59,186H89l-1.13-6.09h-8L78.68,186h-6l6.67-33.6h9.58ZM80.65,175.34H87l-3.16-17Z" fill="#9866a8"/>
          <path d="M98.62,152.39h6.55v28.8h10.77V186H98.62Z" fill="#9866a8"/>
          <path d="M118.8,152.39h6.55v28.8h10.77V186H118.8Z" fill="#9866a8"/>
          <path d="M160.17,186h-6.61l-1.13-6.09h-8L143.26,186h-6l6.67-33.6h9.58Zm-14.94-10.65h6.3l-3.15-17Z" fill="#9866a8"/>
          <path d="M169.75,186H163.2v-33.6h6.55v14.4h7.44v-14.4h6.66V186h-6.66v-14.4h-7.44Z" fill="#9866a8"/>
          <path d="M18.9,210.39h6.55V244H18.9Z" fill="#9866a8"/>
          <path d="M40.09,210.39q5.11,0,7.41,1.92a7.18,7.18,0,0,1,2.29,5.81v1.2a8.2,8.2,0,0,1-1,4.27,6.09,6.09,0,0,1-3.22,2.5,6.25,6.25,0,0,1,3.78,2.66,8.68,8.68,0,0,1,1.1,4.54V236a7.19,7.19,0,0,1-2.5,5.93q-2.49,2-7.44,2H30.21v-33.6Zm-3.34,4.8v8.88h2.56a4.75,4.75,0,0,0,2.89-.77,3.26,3.26,0,0,0,1-2.78v-1.87a3.67,3.67,0,0,0-.8-2.64,3.41,3.41,0,0,0-2.53-.82Zm0,13.68v10.32H40.5a3.86,3.86,0,0,0,2.53-.72,3.22,3.22,0,0,0,.87-2.59V233q0-2.35-1-3.21a4.83,4.83,0,0,0-3.24-.87Z" fill="#9866a8"/>
          <path d="M68.06,244c-.08-.22-.16-.43-.24-.62a4,4,0,0,1-.21-.72,7.23,7.23,0,0,1-.12-1.11q0-.66,0-1.68v-5.28a4.43,4.43,0,0,0-1-3.31,4.63,4.63,0,0,0-3.27-1H60.92V244H54.37v-33.6h9.88q5.11,0,7.41,1.92T74,218.12v2.64q0,5.19-4.28,6.82a5.49,5.49,0,0,1,3.42,2.66,10,10,0,0,1,.92,4.49v5.18a17.48,17.48,0,0,0,.12,2.19,5.92,5.92,0,0,0,.6,1.89Zm-7.14-28.8v10.32h2.56a4.69,4.69,0,0,0,2.88-.77,3.23,3.23,0,0,0,1-2.78v-3.31A3.63,3.63,0,0,0,66.6,216a3.39,3.39,0,0,0-2.53-.82Z" fill="#9866a8"/>
          <path d="M99.49,244H92.88l-1.13-6.09h-8L82.58,244h-6l6.67-33.6h9.58ZM84.55,233.34h6.31l-3.16-17Z" fill="#9866a8"/>
          <path d="M109.07,244h-6.55v-33.6h6.55v14.4h7.44v-14.4h6.66V244h-6.66v-14.4h-7.44Z" fill="#9866a8"/>
          <path d="M127.94,210.39h6.54V244h-6.54Z" fill="#9866a8"/>
          <path d="M153.11,234.25l4.47-23.86h9.1V244h-6.19V219.9L156,244h-6.19l-4.88-23.76V244h-5.72v-33.6h9.11Z" fill="#9866a8"/>
        </g>
        <g>
          <path d="M93.61,121.55H87l-1.12-5.71h-8l-1.13,5.71h-6l6.65-31.5H87Zm-14.91-10H85L81.85,95.63Z" fill="#fff"/>
          <path d="M96.64,90.05h6.53v31.5H96.64Z" fill="#fff"/>
        </g>
      </g>
    </g>
  </g>
</svg>
