<svg xmlns="http://www.w3.org/2000/svg" xmlns:xlink="http://www.w3.org/1999/xlink" viewBox="0 0 149.84 132.76">
  <defs>
    <clipPath id="clip-path" transform="translate(-0.08)">
      <rect width="150" height="132.75" fill="none"/>
    </clipPath>
  </defs>
  <title>Asset 1</title>
  <g id="Layer_2" data-name="Layer 2">
    <g id="Layer_1-2" data-name="Layer 1">
      <g clip-path="url(#clip-path)">
        <polygon points="130.15 110.73 149.84 110.73 146.32 105.56 130.15 105.56 129.25 105.56 111.35 105.56 106.08 97.81 129.25 97.81 130.15 97.81 141.04 97.81 137.52 92.64 130.15 92.64 129.25 92.64 102.56 92.64 97.28 84.88 129.25 84.88 130.15 84.88 132.24 84.88 128.72 79.71 93.75 79.71 88.47 71.96 123.44 71.96 119.92 66.79 84.95 66.79 79.68 59.03 114.64 59.03 111.12 53.86 76.16 53.86 74.04 50.75 71.92 53.86 38.71 53.86 35.19 59.03 68.4 59.03 63.12 66.79 29.91 66.79 26.39 71.96 59.6 71.96 54.33 79.71 21.12 79.71 17.59 84.88 50.8 84.88 45.52 92.64 12.32 92.64 8.8 97.81 42.01 97.81 36.73 105.56 3.52 105.56 0 110.73 0.57 110.73 33.21 110.73 18.21 132.76 129.87 132.75 114.88 110.73 129.25 110.73 130.15 110.73" fill="#4f1263"/>
        <polygon points="93.52 28.01 56.31 28.01 52.79 33.18 97.04 33.18 93.52 28.01" fill="#4f1263"/>
        <polygon points="84.72 15.09 65.11 15.09 61.59 20.26 88.24 20.26 84.72 15.09" fill="#4f1263"/>
        <polygon points="102.32 40.94 47.51 40.94 43.99 46.11 105.84 46.11 102.32 40.94" fill="#4f1263"/>
        <polygon points="74.92 0 70.39 7.33 79.44 7.33 74.92 0" fill="#4f1263"/>
      </g>
      <g>
        <path d="M75.82,121.55H69.23l-1.13-5.71h-8L59,121.55H53l6.65-31.5h9.57Zm-14.91-10h6.3L64.06,95.63Z" transform="translate(-0.08)" fill="#fff"/>
        <path d="M78.85,90.05h6.53v31.5H78.85Z" transform="translate(-0.08)" fill="#fff"/>
      </g>
    </g>
  </g>
</svg>
