<svg width="160" height="160" viewBox="0 0 160 160" fill="none" xmlns="http://www.w3.org/2000/svg">
<path d="M147.168 54.8254C151.445 53.2227 156.256 55.384 157.409 59.8029C161.755 76.4601 160.629 94.1579 154.068 110.232C146.461 128.871 132.106 143.956 113.868 152.478C95.63 161 74.8498 162.334 55.6724 156.211C36.495 150.09 20.3305 136.963 10.4035 119.45C0.476517 101.938 -2.4831 81.3257 2.11508 61.727C6.71326 42.1284 18.5312 24.9838 35.2112 13.7133C51.8913 2.44291 72.2073 -2.12477 92.1061 0.921535C109.268 3.54883 125.032 11.673 137.091 23.9584C140.29 27.2175 139.673 32.4555 136.101 35.3014C132.53 38.1472 127.361 37.5118 124.075 34.34C114.676 25.2673 102.649 19.2663 89.6033 17.2692C73.8183 14.8526 57.7022 18.476 44.4703 27.4166C31.2385 36.3571 21.8636 49.9575 18.2159 65.5046C14.5683 81.0512 16.9162 97.4026 24.7909 111.295C32.6657 125.188 45.4887 135.6 60.7016 140.457C75.9145 145.313 92.3994 144.255 106.867 137.494C121.334 130.734 132.721 118.768 138.756 103.983C143.744 91.7642 144.772 78.3624 141.816 65.6379C140.782 61.1896 142.892 56.4283 147.168 54.8254Z" fill="url(#paint0_linear_1_11)"/>
<path d="M59.338 70.4314C55.7239 70.4314 52.6745 72.6619 52.6745 76.0502C52.6745 77.6596 53.5498 78.9302 54.8769 79.7208C53.3804 80.4831 51.8275 82.0925 51.8275 84.3514C51.8275 88.2761 55.4133 90.5914 59.338 90.5914C63.2627 90.5914 66.8486 88.2761 66.8486 84.3514C66.8486 82.0925 65.2957 80.4831 63.7992 79.7208C65.1263 78.9302 66.0016 77.6596 66.0016 76.0502C66.0016 72.6619 62.9522 70.4314 59.338 70.4314ZM61.7663 84.069C61.7663 85.3961 60.778 86.3561 59.338 86.3561C57.898 86.3561 56.9098 85.3961 56.9098 84.069C56.9098 82.7984 57.898 81.8102 59.338 81.8102C60.778 81.8102 61.7663 82.7984 61.7663 84.069ZM59.338 74.5537C60.4675 74.5537 61.3427 75.3161 61.3427 76.4172C61.3427 77.5184 60.4957 78.2808 59.338 78.2808C58.1804 78.2808 57.3333 77.5184 57.3333 76.4172C57.3333 75.3161 58.2086 74.5537 59.338 74.5537ZM85.902 80.5114C85.902 75.1749 82.8526 70.4314 77.3182 70.4314C71.7558 70.4314 68.7064 75.1749 68.7064 80.5114C68.7064 85.8478 71.7558 90.5914 77.3182 90.5914C82.8526 90.5914 85.902 85.8478 85.902 80.5114ZM80.6502 80.5114C80.6502 83.1372 79.6337 85.7067 77.3182 85.7067C74.9747 85.7067 73.9582 83.1372 73.9582 80.5114C73.9582 77.8855 74.9747 75.3161 77.3182 75.3161C79.6337 75.3161 80.6502 77.8855 80.6502 80.5114ZM97.5537 75.3161C97.5537 72.6337 95.3796 70.5443 92.5843 70.5443C89.789 70.5443 87.6149 72.6337 87.6149 75.3161C87.6149 77.9984 89.789 80.0878 92.5843 80.0878C95.3796 80.0878 97.5537 77.9984 97.5537 75.3161ZM94.222 75.3161C94.222 76.3043 93.5161 76.982 92.5843 76.982C91.6525 76.982 90.9467 76.3043 90.9467 75.3161C90.9467 74.3278 91.6525 73.6502 92.5843 73.6502C93.5161 73.6502 94.222 74.3278 94.222 75.3161ZM108.142 70.7984H103.822L89.422 90.1961H93.742L108.142 70.7984ZM100.01 85.6784C100.01 88.3608 102.184 90.4502 104.98 90.4502C107.775 90.4502 109.949 88.3608 109.949 85.6784C109.949 82.9961 107.775 80.9067 104.98 80.9067C102.184 80.9067 100.01 82.9961 100.01 85.6784ZM103.342 85.6784C103.342 84.6902 104.048 84.0125 104.98 84.0125C105.911 84.0125 106.617 84.6902 106.617 85.6784C106.617 86.6667 105.911 87.3443 104.98 87.3443C104.048 87.3443 103.342 86.6667 103.342 85.6784Z" fill="#764270"/>
<defs>
<linearGradient id="paint0_linear_1_11" x1="-9.7526" y1="71.541" x2="178.921" y2="72.234" gradientUnits="userSpaceOnUse">
<stop stop-color="#791E55"/>
<stop offset="1" stop-color="#5742B1"/>
</linearGradient>
</defs>
</svg>
