<svg width="204" height="204" viewBox="0 0 204 204" fill="none" xmlns="http://www.w3.org/2000/svg">
<g clip-path="url(#clip0_1_18)">
<path d="M187.639 69.9024C193.092 67.8589 199.226 70.6146 200.696 76.2487C206.238 97.4866 204.802 120.051 196.436 140.546C186.737 164.31 168.435 183.543 145.182 194.409C121.928 205.275 95.4335 206.975 70.9823 199.169C46.5311 191.364 25.9213 174.628 13.2644 152.299C0.607559 129.97 -3.16595 103.69 2.69673 78.7019C8.55941 53.7137 23.6272 31.8543 44.8943 17.4845C66.1614 3.11471 92.0643 -2.70908 117.435 1.17496C139.317 4.52476 159.415 14.883 174.791 30.5469C178.869 34.7023 178.083 41.3808 173.529 45.0093C168.975 48.6377 162.385 47.8275 158.195 43.7835C146.212 32.2158 130.877 24.5645 114.244 22.0182C94.1183 18.9371 73.5703 23.5569 56.6996 34.9561C39.829 46.3553 27.876 63.6958 23.2253 83.5183C18.5746 103.34 21.5681 124.188 31.6084 141.901C41.6488 159.614 57.9981 172.89 77.3945 179.082C96.791 185.274 117.809 183.925 136.255 175.305C154.701 166.686 169.219 151.429 176.914 132.578C183.273 116.999 184.584 99.912 180.815 83.6883C179.497 78.0167 182.187 71.946 187.639 69.9024Z" fill="url(#paint0_linear_1_18)"/>
<path d="M65 98.36C65 103.004 68.24 106.712 72.956 106.712C73.568 106.712 74 106.64 74.252 106.496L68.816 114.2H76.448L81.992 105.38C83.396 103.112 84.296 100.52 84.296 98.18C84.296 92.924 80.228 89 74.648 89C69.176 89 65 92.96 65 98.36ZM71.336 98.108C71.336 96.272 72.812 94.868 74.684 94.868C76.556 94.868 77.996 96.308 77.996 98.144C77.996 99.98 76.556 101.384 74.684 101.384C72.812 101.384 71.336 99.944 71.336 98.108ZM108.585 101.852C108.585 95.048 104.697 89 97.6413 89C90.5493 89 86.6613 95.048 86.6613 101.852C86.6613 108.656 90.5493 114.704 97.6413 114.704C104.697 114.704 108.585 108.656 108.585 101.852ZM101.889 101.852C101.889 105.2 100.593 108.476 97.6413 108.476C94.6533 108.476 93.3573 105.2 93.3573 101.852C93.3573 98.504 94.6533 95.228 97.6413 95.228C100.593 95.228 101.889 98.504 101.889 101.852ZM123.441 95.228C123.441 91.808 120.669 89.144 117.105 89.144C113.541 89.144 110.769 91.808 110.769 95.228C110.769 98.648 113.541 101.312 117.105 101.312C120.669 101.312 123.441 98.648 123.441 95.228ZM119.193 95.228C119.193 96.488 118.293 97.352 117.105 97.352C115.917 97.352 115.017 96.488 115.017 95.228C115.017 93.968 115.917 93.104 117.105 93.104C118.293 93.104 119.193 93.968 119.193 95.228ZM136.941 89.468H131.433L113.073 114.2H118.581L136.941 89.468ZM126.573 108.44C126.573 111.86 129.345 114.524 132.909 114.524C136.473 114.524 139.245 111.86 139.245 108.44C139.245 105.02 136.473 102.356 132.909 102.356C129.345 102.356 126.573 105.02 126.573 108.44ZM130.821 108.44C130.821 107.18 131.721 106.316 132.909 106.316C134.097 106.316 134.997 107.18 134.997 108.44C134.997 109.7 134.097 110.564 132.909 110.564C131.721 110.564 130.821 109.7 130.821 108.44Z" fill="#764270"/>
</g>
<defs>
<linearGradient id="paint0_linear_1_18" x1="-12.4346" y1="91.2148" x2="228.124" y2="92.0983" gradientUnits="userSpaceOnUse">
<stop stop-color="#791E55"/>
<stop offset="1" stop-color="#5742B1"/>
</linearGradient>
<clipPath id="clip0_1_18">
<rect width="204" height="204" fill="white"/>
</clipPath>
</defs>
</svg>
